<svg width="16" height="16" viewBox="0 0 16 16" fill="none" xmlns="http://www.w3.org/2000/svg">
<g clip-path="url(#clip0_4853_56)">
<path fill-rule="evenodd" clip-rule="evenodd" d="M14.0636 10.0852L15.2616 5.61427C15.3002 5.47033 15.314 5.3172 15.3343 5.17068C15.3659 4.94205 15.4027 4.63009 15.4209 4.30836C15.4385 3.99576 15.4412 3.63423 15.3883 3.32245C15.3622 3.16834 15.3159 2.98403 15.2227 2.81446C15.1272 2.64064 14.9478 2.42436 14.6428 2.34264C14.3647 2.26811 14.1138 2.34368 13.9611 2.40762C13.7958 2.47681 13.6408 2.5768 13.507 2.67615C13.2376 2.8763 12.9614 3.14431 12.7241 3.39465C12.4916 3.63998 12.2772 3.88909 12.1173 4.08156L7.80393 2.92579C7.7623 2.68262 7.70152 2.36063 7.6227 2.03085C7.54241 1.69495 7.43715 1.32401 7.30379 1.01534C7.23759 0.862122 7.15333 0.697741 7.04472 0.554926C6.9444 0.423016 6.76481 0.231685 6.48623 0.15704C6.18127 0.0753266 5.91774 0.172918 5.74814 0.275709C5.58268 0.37599 5.45041 0.512446 5.35073 0.632843C5.14905 0.876418 4.97058 1.19084 4.82957 1.47038C4.63322 1.85961 4.44524 2.26394 4.31455 2.68095L3.1165 7.15177L2.53699 6.75115C2.08268 6.4371 1.45981 6.55079 1.14576 7.00509C0.930094 7.31706 0.916142 7.70853 1.07568 8.02489C0.896662 8.14187 0.753637 8.31693 0.678298 8.53467C0.586169 8.80093 0.613056 9.07958 0.7308 9.31265C0.492503 9.46871 0.322158 9.72498 0.285423 10.0299C0.21937 10.5782 0.610323 11.0763 1.15865 11.1423L2.01943 11.246L1.72624 12.3402C1.63095 12.6959 1.842 13.0614 2.19765 13.1567L11.8569 15.7449C12.2126 15.8402 12.5781 15.6291 12.6734 15.2735L12.9666 14.1794L13.7642 14.5201C14.2721 14.737 14.8597 14.5012 15.0767 13.9933C15.1973 13.7109 15.1779 13.4038 15.0496 13.1495C15.2682 13.0065 15.4308 12.7786 15.4842 12.5019C15.5278 12.2757 15.4914 12.0525 15.3949 11.8617C15.6912 11.6675 15.8748 11.3215 15.844 10.9436C15.7992 10.3931 15.3167 9.98318 14.7662 10.028L14.0636 10.0852ZM1.69415 7.38419C1.79883 7.23275 2.00646 7.19486 2.15789 7.29954L3.51559 8.2381L4.9585 2.85351C4.9585 2.85351 5.75023 0.650013 6.31368 0.800991C6.87714 0.951968 7.21232 3.45745 7.21232 3.45745L12.3638 4.8378C12.3689 4.83129 13.9078 2.83586 14.4703 2.98659C15.0338 3.13757 14.6177 5.44172 14.6177 5.44172L13.1748 10.8264L14.8203 10.6925C15.0038 10.6775 15.1646 10.8142 15.1796 10.9977C15.1945 11.1811 15.0579 11.342 14.8744 11.3569L12.9916 11.5102L12.9479 11.6734L14.5654 11.9853C14.6135 11.9946 14.6572 12.0138 14.6948 12.0404C14.7983 12.1137 14.8551 12.2431 14.8295 12.3757C14.7962 12.5486 14.6348 12.6644 14.4626 12.6436C14.4548 12.6426 14.447 12.6414 14.4391 12.6399L14.4385 12.6398L12.7749 12.319L12.6959 12.6139L14.288 13.2939C14.4573 13.3662 14.5359 13.5621 14.4636 13.7314C14.3913 13.9007 14.1954 13.9793 14.0261 13.907L12.5216 13.2643L12.0295 15.101L2.37019 12.5128L2.86233 10.6761L1.23838 10.4805C1.05561 10.4584 0.925287 10.2924 0.947305 10.1097C0.969323 9.92688 1.13557 9.79659 1.31834 9.81861L3.03663 10.0256L3.11564 9.73073L1.51461 9.17676L1.49198 9.16804C1.33258 9.09989 1.25075 8.91903 1.30832 8.75266C1.35247 8.62506 1.46636 8.54143 1.59259 8.52966C1.63846 8.52539 1.68595 8.5306 1.73232 8.54665L3.28862 9.08514L3.33236 8.9219L1.77879 7.84793C1.62736 7.74324 1.58946 7.53562 1.69415 7.38419Z" fill="#171717"/>
<path fill-rule="evenodd" clip-rule="evenodd" d="M7.54712 7.18037C7.41175 7.85753 6.87178 8.32541 6.34106 8.22541C5.81033 8.12542 5.48984 7.49542 5.62521 6.81826C5.76058 6.14111 6.30055 5.67323 6.83127 5.77323C7.36199 5.87322 7.68249 6.50322 7.54712 7.18037ZM12.0582 8.54203C11.8368 9.19614 11.2443 9.58149 10.7347 9.40273C10.225 9.22396 9.99135 8.54878 10.2127 7.89467C10.434 7.24055 11.0266 6.8552 11.5362 7.03397C12.0458 7.21273 12.2795 7.88791 12.0582 8.54203ZM9.45467 9.90014C9.38231 10.1702 8.95938 10.4642 8.4566 10.4701C8.42767 10.466 8.40009 10.4621 8.3736 10.4582C8.53165 11.1542 8.88565 11.5381 9.24237 11.6728C9.60528 11.8099 10.04 11.7156 10.404 11.3106C10.4963 11.2079 10.6543 11.1994 10.757 11.2917C10.8597 11.384 10.8682 11.5421 10.7759 11.6448C10.297 12.1777 9.65175 12.3619 9.06575 12.1406C8.58983 11.9609 8.20055 11.5321 7.98233 10.9061C7.48033 11.3392 6.92884 11.5158 6.42685 11.4335C5.80873 11.3321 5.34209 10.85 5.19381 10.149C5.16524 10.0139 5.25158 9.88126 5.38666 9.85269C5.52174 9.82411 5.65441 9.91045 5.68299 10.0455C5.7957 10.5784 6.12499 10.8773 6.50777 10.9401C6.88307 11.0016 7.38006 10.847 7.86376 10.3265C7.83698 10.3151 7.80924 10.3026 7.78021 10.2889C7.34772 10.0324 7.12849 9.56625 7.20084 9.29623C7.42269 8.46829 9.67651 9.0722 9.45467 9.90014Z" fill="#171717"/>
</g>
<g clip-path="url(#clip1_4853_56)">
<path fill-rule="evenodd" clip-rule="evenodd" d="M4.95856 2.85356C4.95856 2.85356 5.75029 0.650059 6.31375 0.801037C6.87721 0.952014 7.21239 3.45747 7.21239 3.45747L7.21239 3.45749L12.3639 4.83784C12.3689 4.83133 13.9078 2.83591 14.4704 2.98664C15.0338 3.13762 14.6177 5.44177 14.6177 5.44177L14.4452 6.08572L14.4452 6.08571L13.1749 10.8264L14.8204 10.6925C15.0038 10.6776 15.1647 10.8142 15.1796 10.9977C15.1946 11.1812 15.0579 11.342 14.8744 11.357L12.9917 11.5102L12.9479 11.6734L14.5654 11.9853C14.7462 12.0202 14.8645 12.195 14.8296 12.3758C14.7948 12.5565 14.62 12.6748 14.4392 12.6399L12.7749 12.319L12.6959 12.6139L14.2881 13.294C14.4574 13.3663 14.536 13.5622 14.4637 13.7315C14.3914 13.9008 14.1955 13.9794 14.0262 13.9071L12.5216 13.2644L12.0295 15.101L2.37026 12.5128L2.8624 10.6761L1.23845 10.4805C1.05567 10.4585 0.925356 10.2925 0.947374 10.1097C0.969391 9.92692 1.13541 9.79661 1.31818 9.81862L3.0367 10.0256L3.11571 9.73078L1.5144 9.17671C1.34043 9.11652 1.24819 8.92668 1.30839 8.75271C1.36858 8.57873 1.55842 8.4865 1.73239 8.54669L3.28869 9.08519L3.33243 8.92195L1.77886 7.84797C1.62743 7.74329 1.58953 7.53567 1.69422 7.38423C1.7989 7.2328 2.00652 7.1949 2.15796 7.29959L3.51565 8.23815L4.95845 2.85355L4.95856 2.85358L4.95856 2.85356ZM8.37063 10.4683C8.91046 10.4976 9.37826 10.1855 9.45471 9.90017C9.67655 9.07223 7.42273 8.46832 7.20088 9.29626C7.12444 9.58156 7.37349 10.0858 7.85566 10.3303C7.37288 10.8483 6.87716 11.0022 6.50262 10.9407C6.11984 10.878 5.79055 10.579 5.67784 10.0462C5.64926 9.9111 5.51659 9.82475 5.38151 9.85333C5.24643 9.8819 5.16009 10.0146 5.18866 10.1497C5.33694 10.8506 5.80358 11.3328 6.42169 11.4341C6.92369 11.5165 7.47517 11.3398 7.97718 10.9067C8.1954 11.5328 8.58467 11.9615 9.06059 12.1413C9.6466 12.3625 10.2918 12.1783 10.7707 11.6454C10.863 11.5427 10.8546 11.3846 10.7519 11.2924C10.6492 11.2001 10.4911 11.2085 10.3988 11.3112C10.0348 11.7163 9.60013 11.8105 9.23722 11.6735C8.88213 11.5394 8.52972 11.1583 8.37063 10.4683ZM7.54716 7.18041C7.41179 7.85756 6.87182 8.32544 6.3411 8.22545C5.81037 8.12545 5.48988 7.49545 5.62525 6.8183C5.76062 6.14115 6.30059 5.67327 6.83131 5.77326C7.36203 5.87326 7.68253 6.50326 7.54716 7.18041ZM12.0582 8.54206C11.8369 9.19618 11.2443 9.58153 10.7347 9.40276C10.2251 9.224 9.99139 8.54882 10.2127 7.8947C10.4341 7.24059 11.0266 6.85524 11.5363 7.034C12.0459 7.21276 12.2796 7.88795 12.0582 8.54206Z" fill="white"/>
</g>
<defs>
<clipPath id="clip0_4853_56">
<rect width="16" height="16" fill="white"/>
</clipPath>
<clipPath id="clip1_4853_56">
<rect width="16" height="16" fill="white"/>
</clipPath>
</defs>
</svg>
