<svg width="64" height="64" viewBox="0 0 64 64" fill="none" xmlns="http://www.w3.org/2000/svg">
<g clip-path="url(#clip0_4853_87)">
<path fill-rule="evenodd" clip-rule="evenodd" d="M56.2544 40.3409L61.0464 22.4573C61.2007 21.8815 61.2559 21.269 61.337 20.6829C61.4635 19.7684 61.6109 18.5205 61.6835 17.2336C61.7541 15.9832 61.7647 14.5371 61.5533 13.29C61.4487 12.6735 61.2635 11.9363 60.8908 11.258C60.5089 10.5627 59.7912 9.6976 58.5714 9.37075C57.4587 9.07261 56.4554 9.37491 55.8443 9.63066C55.1831 9.90743 54.5632 10.3074 54.0281 10.7048C52.9503 11.5054 51.8454 12.5774 50.8964 13.5788C49.9665 14.5601 49.1089 15.5565 48.4693 16.3264L31.2157 11.7033C31.0492 10.7307 30.8061 9.44271 30.4908 8.1236C30.1696 6.78 29.7486 5.29623 29.2151 4.06154C28.9503 3.44867 28.6133 2.79115 28.1789 2.21989C27.7776 1.69225 27.0592 0.926925 25.9449 0.628344C24.7251 0.30149 23.6709 0.691856 22.9925 1.10302C22.3307 1.50414 21.8016 2.04997 21.4029 2.53156C20.5962 3.50585 19.8823 4.76354 19.3183 5.8817C18.5329 7.43863 17.7809 9.05594 17.2582 10.724L12.466 28.6073L10.1479 27.0048C8.33072 25.7486 5.83923 26.2033 4.58301 28.0205C3.72036 29.2684 3.66455 30.8343 4.30271 32.0997C3.58663 32.5677 3.01453 33.2679 2.71318 34.1389C2.34466 35.2039 2.45221 36.3185 2.92318 37.2508C1.97 37.875 1.28862 38.9001 1.14168 40.1199C0.877465 42.3131 2.44128 44.3053 4.63457 44.5695L8.0777 44.9843L6.90496 49.3611C6.52378 50.7836 7.368 52.2459 8.79058 52.627L47.4276 62.9798C48.8502 63.361 50.3124 62.5168 50.6936 61.0942L51.8663 56.7176L55.057 58.0805C57.0885 58.9483 59.4389 58.0049 60.3067 55.9733C60.7893 54.8436 60.7117 53.6152 60.1985 52.5981C61.0726 52.0262 61.7232 51.1147 61.9366 50.0079C62.1111 49.1029 61.9657 48.2103 61.5795 47.447C62.7647 46.6701 63.4992 45.2863 63.3761 43.7744C63.1969 41.5726 61.2667 39.9329 59.0648 40.1121L56.2544 40.3409ZM6.77657 29.5369C7.19531 28.9312 8.02581 28.7796 8.63154 29.1983L14.0623 32.9526L19.834 11.4142C19.834 11.4142 23.0009 2.60023 25.2547 3.20415C27.5085 3.80806 28.8493 13.83 28.8493 13.83L49.4554 19.3514C49.4755 19.3253 55.631 11.3436 57.8812 11.9466C60.135 12.5505 58.4706 21.7671 58.4706 21.7671L52.6993 43.3057L59.2811 42.77C60.0151 42.7103 60.6585 43.2568 60.7183 43.9908C60.778 44.7247 60.2314 45.3682 59.4975 45.4279L51.9664 46.0409L51.7915 46.6937L58.2614 47.9413C58.454 47.9785 58.6289 48.0554 58.7792 48.1618C59.1931 48.455 59.4204 48.9726 59.3182 49.503C59.1848 50.1947 58.5392 50.6577 57.8504 50.5745C57.8192 50.5707 57.7879 50.5658 57.7565 50.5598L57.7541 50.5593L51.0995 49.2761L50.7835 50.4556L57.152 53.1759C57.8292 53.4652 58.1437 54.2486 57.8544 54.9258C57.5651 55.603 56.7817 55.9175 56.1045 55.6282L50.0863 53.0575L48.1178 60.404L9.48076 50.0512L11.4493 42.7045L4.9535 41.922C4.22241 41.8339 3.70113 41.1699 3.7892 40.4388C3.87728 39.7077 4.54226 39.1865 5.27335 39.2746L12.1465 40.1026L12.4625 38.9231L6.05841 36.7072L5.9679 36.6723C5.33031 36.3998 5.003 35.6763 5.23325 35.0108C5.40986 34.5004 5.86544 34.1659 6.37033 34.1188C6.55381 34.1017 6.74379 34.1226 6.92928 34.1868L13.1545 36.3407L13.3294 35.6878L7.11515 31.3919C6.50942 30.9732 6.35783 30.1427 6.77657 29.5369Z" fill="#14111D"/>
<path fill-rule="evenodd" clip-rule="evenodd" d="M30.1885 28.7215C29.647 31.4301 27.4871 33.3016 25.3642 32.9016C23.2413 32.5017 21.9593 29.9817 22.5008 27.2731C23.0423 24.5645 25.2022 22.6929 27.3251 23.0929C29.448 23.4929 30.7299 26.0129 30.1885 28.7215ZM48.2327 34.1681C47.3473 36.7846 44.9771 38.326 42.9386 37.6109C40.9001 36.8959 39.9654 34.1951 40.8508 31.5787C41.7361 28.9622 44.1064 27.4208 46.1448 28.1359C48.1833 28.8509 49.118 31.5516 48.2327 34.1681ZM37.8187 39.6005C37.5292 40.6807 35.8375 41.857 33.8264 41.8804C33.7107 41.8641 33.6004 41.8483 33.4944 41.8327C34.1266 44.6166 35.5426 46.1526 36.9695 46.6914C38.4211 47.2395 40.1598 46.8625 41.6158 45.2422C41.985 44.8314 42.6173 44.7977 43.0281 45.1668C43.4388 45.536 43.4726 46.1683 43.1034 46.579C41.1878 48.7108 38.607 49.4476 36.263 48.5624C34.3593 47.8436 32.8022 46.1286 31.9293 43.6244C29.9213 45.3566 27.7154 46.0633 25.7074 45.734C23.2349 45.3285 21.3684 43.3999 20.7752 40.596C20.6609 40.0557 21.0063 39.525 21.5466 39.4107C22.087 39.2964 22.6176 39.6418 22.7319 40.1821C23.1828 42.3134 24.5 43.5092 26.0311 43.7604C27.5323 44.0066 29.5202 43.3882 31.455 41.306C31.3479 41.2605 31.2369 41.2105 31.1208 41.1555C29.3909 40.1296 28.5139 38.265 28.8033 37.1849C29.6907 33.8732 38.706 36.2888 37.8187 39.6005Z" fill="#14111D"/>
</g>
<g clip-path="url(#clip1_4853_87)">
<path fill-rule="evenodd" clip-rule="evenodd" d="M19.8342 11.4142C19.8342 11.4142 23.0011 2.60024 25.2549 3.20415C27.5087 3.80806 28.8495 13.8299 28.8495 13.8299L28.8495 13.83L49.4556 19.3514C49.4757 19.3253 55.6312 11.3436 57.8814 11.9465C60.1352 12.5505 58.4708 21.7671 58.4708 21.7671L57.7807 24.3429L57.7805 24.3428L52.6995 43.3057L59.2813 42.77C60.0153 42.7103 60.6587 43.2568 60.7184 43.9908C60.7782 44.7247 60.2316 45.3682 59.4977 45.4279L51.9666 46.0409L51.7916 46.6937L58.2616 47.9413C58.9847 48.0808 59.4578 48.78 59.3184 49.503C59.1789 50.2261 58.4797 50.6992 57.7567 50.5598L51.0997 49.2761L50.7837 50.4556L57.1522 53.1759C57.8294 53.4652 58.1439 54.2486 57.8546 54.9258C57.5653 55.603 56.7819 55.9175 56.1047 55.6282L50.0865 53.0575L48.118 60.404L9.48096 50.0512L11.4495 42.7045L4.9537 41.922C4.2226 41.8339 3.70133 41.1699 3.7894 40.4388C3.87747 39.7077 4.54154 39.1864 5.27263 39.2745L12.1467 40.1026L12.4627 38.9231L6.05751 36.7068C5.36161 36.4661 4.99267 35.7067 5.23346 35.0108C5.47424 34.3149 6.23358 33.946 6.92948 34.1868L13.1547 36.3407L13.3296 35.6878L7.11535 31.3919C6.50962 30.9732 6.35803 30.1427 6.77677 29.5369C7.19551 28.9312 8.02601 28.7796 8.63174 29.1983L14.0625 32.9526L19.8337 11.4142L19.8341 11.4143L19.8342 11.4142ZM33.4824 41.8732C35.6418 41.9905 37.513 40.7419 37.8187 39.6007C38.7061 36.2889 29.6908 33.8733 28.8034 37.185C28.4977 38.3262 29.4939 40.3432 31.4225 41.3213C29.4914 43.3933 27.5085 44.0087 26.0104 43.7629C24.4793 43.5118 23.1621 42.316 22.7113 40.1847C22.597 39.6444 22.0663 39.299 21.5259 39.4133C20.9856 39.5276 20.6403 40.0583 20.7546 40.5986C21.3477 43.4025 23.2142 45.3311 25.6867 45.7366C27.6947 46.0659 29.9006 45.3592 31.9086 43.6269C32.7815 46.1312 34.3386 47.8462 36.2423 48.565C38.5863 49.4501 41.1671 48.7133 43.0828 46.5816C43.4519 46.1708 43.4182 45.5386 43.0074 45.1694C42.5966 44.8003 41.9643 44.834 41.5952 45.2448C40.1391 46.8651 38.4004 47.2421 36.9488 46.694C35.5284 46.1576 34.1188 44.6332 33.4824 41.8732ZM30.1885 28.7216C29.6471 31.4302 27.4872 33.3018 25.3643 32.9018C23.2414 32.5018 21.9594 29.9818 22.5009 27.2732C23.0424 24.5646 25.2023 22.6931 27.3252 23.093C29.448 23.493 30.73 26.013 30.1885 28.7216ZM48.2328 34.1682C47.3474 36.7847 44.9772 38.3261 42.9387 37.6111C40.9002 36.896 39.9655 34.1953 40.8508 31.5788C41.7362 28.9623 44.1065 27.421 46.1449 28.136C48.1834 28.8511 49.1181 31.5518 48.2328 34.1682Z" fill="white"/>
</g>
<defs>
<clipPath id="clip0_4853_87">
<rect width="64" height="64" fill="white"/>
</clipPath>
<clipPath id="clip1_4853_87">
<rect width="64" height="64" fill="white"/>
</clipPath>
</defs>
</svg>
